<svg width="356" height="65" viewBox="0 0 356 65" fill="none" xmlns="http://www.w3.org/2000/svg">
<path d="M0.189209 63.5V0.32373H5.56773V19.2766H23.8376C32.1473 19.2766 36.3021 23.4599 36.3021 31.8265V63.5H30.9236V30.9728C30.9236 26.3626 28.6185 24.0575 24.0084 24.0575H5.56773V63.5H0.189209Z" fill="black"/>
<path d="M45.0943 50.9501V31.8265C45.0943 23.4599 49.2776 19.2766 57.6441 19.2766H69.5964C77.9061 19.2766 82.0609 23.4599 82.0609 31.8265V50.9501C82.0609 59.3167 77.9061 63.5 69.5964 63.5H57.6441C49.2776 63.5 45.0943 59.3167 45.0943 50.9501ZM50.4728 51.8039C50.4728 56.4709 52.8063 58.8045 57.4734 58.8045H69.7672C74.3773 58.8045 76.6824 56.4709 76.6824 51.8039V30.9728C76.6824 26.3626 74.3773 24.0575 69.7672 24.0575H57.4734C52.8063 24.0575 50.4728 26.3626 50.4728 30.9728V51.8039Z" fill="black"/>
<path d="M90.857 52.6576V0.32373H96.2356V53.0845C96.2356 57.1824 98.313 59.3167 102.468 59.4875V64.183C94.7273 64.183 90.857 60.3412 90.857 52.6576Z" fill="black"/>
<path d="M107.173 50.9501V31.8265C107.173 23.4599 111.357 19.2766 119.723 19.2766H131.676C139.985 19.2766 144.14 23.4599 144.14 31.8265V50.9501C144.14 59.3167 139.985 63.5 131.676 63.5H119.723C111.357 63.5 107.173 59.3167 107.173 50.9501ZM112.552 51.8039C112.552 56.4709 114.885 58.8045 119.552 58.8045H131.846C136.456 58.8045 138.762 56.4709 138.762 51.8039V30.9728C138.762 26.3626 136.456 24.0575 131.846 24.0575H119.552C114.885 24.0575 112.552 26.3626 112.552 30.9728V51.8039Z" fill="black"/>
<path d="M151.485 61.2803V58.8045H171.291C175.845 58.8045 178.121 56.5279 178.121 51.9746C178.121 47.4214 176.3 44.8602 172.657 44.291L162.242 42.4982C155.07 41.3029 151.485 37.5181 151.485 31.1435C151.485 23.2322 155.697 19.2766 164.12 19.2766H178.548L181.451 21.4963V24.0575H163.779C159.168 24.0575 156.863 26.3057 156.863 30.802C156.863 34.7861 158.77 37.0912 162.583 37.7173L173.084 39.5101C180.028 40.6484 183.5 44.6894 183.5 51.6331C183.5 59.5444 179.288 63.5 170.865 63.5H154.387L151.485 61.2803Z" fill="black"/>
<path d="M190.846 50.9501V31.8265C190.846 23.4599 195.029 19.2766 203.396 19.2766H214.494C222.804 19.2766 226.959 23.4599 226.959 31.8265V43.5226H196.224V51.8039C196.224 56.4709 198.558 58.8045 203.225 58.8045H225.251V61.2803L222.349 63.5H203.396C195.029 63.5 190.846 59.3167 190.846 50.9501ZM196.224 38.9979H221.58V30.9728C221.58 26.3626 219.275 24.0575 214.665 24.0575H203.225C198.558 24.0575 196.224 26.3626 196.224 30.9728V38.9979Z" fill="black"/>
<path d="M236.116 63.5V19.2766H259.765C268.075 19.2766 272.229 23.4599 272.229 31.8265V63.5H266.851V30.9728C266.851 26.3626 264.546 24.0575 259.936 24.0575H241.495V63.5H236.116Z" fill="black"/>
<path d="M279.912 61.2803V58.8045H299.718C304.272 58.8045 306.548 56.5279 306.548 51.9746C306.548 47.4214 304.727 44.8602 301.084 44.291L290.669 42.4982C283.497 41.3029 279.912 37.5181 279.912 31.1435C279.912 23.2322 284.123 19.2766 292.547 19.2766H306.975L309.878 21.4963V24.0575H292.205C287.595 24.0575 285.29 26.3057 285.29 30.802C285.29 34.7861 287.197 37.0912 291.01 37.7173L301.511 39.5101C308.455 40.6484 311.927 44.6894 311.927 51.6331C311.927 59.5444 307.715 63.5 299.291 63.5H282.814L279.912 61.2803Z" fill="black"/>
<path d="M319.273 50.9501V31.8265C319.273 23.4599 323.456 19.2766 331.823 19.2766H342.921C351.231 19.2766 355.386 23.4599 355.386 31.8265V43.5226H324.651V51.8039C324.651 56.4709 326.985 58.8045 331.652 58.8045H353.678V61.2803L350.776 63.5H331.823C323.456 63.5 319.273 59.3167 319.273 50.9501ZM324.651 38.9979H350.007V30.9728C350.007 26.3626 347.702 24.0575 343.092 24.0575H331.652C326.985 24.0575 324.651 26.3626 324.651 30.9728V38.9979Z" fill="black"/>
</svg>
