<svg width="516" height="516" viewBox="0 0 516 516" fill="none" xmlns="http://www.w3.org/2000/svg">
<path d="M254.232 257.982H259.59" stroke="black" stroke-width="46.4324" stroke-linecap="round"/>
<path d="M43.5 106.386C43.5006 16.4618 151.57 -29.2925 216.141 33.2932L222.068 39.0393L189.231 71.8763L183.824 66.635C148.706 32.5972 89.9332 57.4805 89.9326 106.386V409.657C89.9326 458.564 148.707 483.447 183.824 449.409L309.015 328.069C311.097 326.05 312.272 323.274 312.272 320.374V195.669C312.272 192.769 311.097 189.992 309.015 187.974L293.403 172.842L326.24 140.005L341.331 154.632C352.437 165.396 358.705 180.203 358.705 195.669V320.374C358.705 335.84 352.436 350.647 341.331 361.41L216.141 482.751L214.62 484.199C150.398 544.144 45.1729 499.592 43.5195 411.756L43.5 409.657V106.386Z" fill="black"/>
<circle cx="309.594" cy="157.121" r="23.2162" fill="black"/>
<circle cx="204.228" cy="53.5413" r="23.2162" fill="black"/>
<path d="M473 409.659C472.999 499.583 364.93 545.337 300.359 482.751L294.432 477.005L327.269 444.168L332.676 449.41C367.794 483.448 426.567 458.564 426.567 409.659L426.567 106.388C426.567 57.4812 367.793 32.5979 332.676 66.6353L207.485 187.976C205.403 189.994 204.228 192.771 204.228 195.67L204.228 320.376C204.228 323.275 205.403 326.053 207.485 328.071L223.097 343.203L190.26 376.04L175.169 361.413C164.063 350.649 157.795 335.841 157.795 320.376L157.795 195.67C157.795 180.205 164.064 165.398 175.169 154.634L300.359 33.2935L301.88 31.8462C366.102 -28.0993 471.327 16.4523 472.98 104.289L473 106.388L473 409.659Z" fill="black"/>
<circle cx="206.906" cy="358.923" r="23.2162" transform="rotate(180 206.906 358.923)" fill="black"/>
<circle cx="312.272" cy="462.503" r="23.2162" transform="rotate(180 312.272 462.503)" fill="black"/>
</svg>
